
<svg version="1.0" xmlns="http://www.w3.org/2000/svg"
 width="150px" height="100px" viewBox="0 0 456 304"
 preserveAspectRatio="xMidYMid meet">
<g transform="translate(140,304) scale(0.080000,-0.080000)"
fill="#000000" stroke="none">
<path d="M1097 3664 c-1 -1 -22 -5 -47 -9 -25 -3 -53 -8 -62 -11 -9 -3 -27 -7
-40 -9 -13 -3 -39 -11 -58 -19 -19 -7 -62 -24 -95 -37 -125 -48 -238 -133
-319 -238 -146 -191 -190 -348 -163 -581 16 -136 70 -267 158 -385 33 -44 36
-51 23 -70 -17 -26 -21 -67 -11 -122 8 -46 77 -127 112 -131 16 -1 40 -6 63
-11 2 -1 -6 -14 -17 -30 -12 -16 -21 -35 -21 -43 0 -7 -6 -22 -13 -33 -8 -11
-22 -42 -32 -70 -9 -27 -23 -63 -30 -80 -12 -27 -41 -131 -51 -179 -2 -10 -8
-34 -14 -52 -15 -44 -11 -122 8 -156 24 -43 88 -72 154 -71 63 0 63 0 48 -27
-19 -35 -22 -106 -5 -120 12 -10 13 -16 4 -26 -18 -22 -47 -74 -70 -124 -11
-25 -24 -52 -28 -61 -23 -41 -54 -181 -55 -244 -1 -118 49 -220 135 -272 l46
-27 -26 -21 c-44 -34 -58 -49 -76 -84 -18 -36 -28 -138 -14 -147 5 -3 7 -9 4
-14 -8 -13 23 -57 58 -82 45 -32 194 -34 296 -3 41 12 77 27 79 33 2 7 8 10
13 7 9 -6 54 22 103 65 22 20 30 22 34 11 10 -28 50 -60 90 -71 34 -9 97 -8
210 2 6 1 12 5 12 10 0 5 5 6 10 3 6 -4 24 0 40 9 17 8 32 10 36 5 3 -5 10 -7
15 -4 5 4 17 8 27 10 120 23 238 82 314 157 32 31 58 62 58 68 0 67 -83 220
-119 220 -6 0 -12 12 -12 28 -4 69 -15 141 -34 222 -4 14 -8 39 -11 55 -10 66
-32 130 -65 188 -6 11 -9 20 -7 21 2 1 15 10 30 19 41 25 54 103 34 192 -8 34
-7 40 12 41 20 1 78 28 103 47 20 15 52 65 56 86 11 60 2 114 -32 186 -13 28
-26 68 -30 90 -13 82 -68 184 -132 247 -28 28 -59 55 -67 60 -23 13 -20 33 10
54 78 56 141 129 177 205 13 29 24 37 51 42 19 3 49 16 66 29 32 23 72 88 69
111 -1 7 1 24 6 40 16 57 -30 107 -106 116 -6 0 4 17 24 37 19 20 49 65 67
100 28 57 32 72 28 124 -3 49 -10 66 -32 89 -40 41 -125 76 -209 85 -24 3 -32
14 -51 71 -23 70 -77 193 -106 240 -38 62 -155 165 -181 161 -4 -1 -15 6 -25
16 -41 35 -194 67 -317 65 -54 0 -99 -2 -100 -3z m233 -31 c25 -4 47 -7 50 -8
3 -1 19 -5 35 -10 17 -4 36 -12 43 -18 6 -5 12 -7 12 -3 0 8 54 -19 95 -48
110 -77 214 -231 201 -297 -4 -21 -2 -29 8 -29 14 0 53 -86 44 -96 -3 -2 -34
-7 -69 -10 -35 -3 -82 -10 -104 -16 -22 -5 -51 -12 -65 -14 -44 -8 -225 -66
-239 -78 -8 -6 -17 -10 -20 -10 -10 2 -32 -6 -99 -37 -35 -16 -67 -29 -72 -29
-6 0 -10 -4 -10 -10 0 -5 -6 -10 -14 -10 -7 0 -26 -10 -42 -22 -16 -13 -30
-22 -31 -20 -3 2 -53 -28 -63 -38 -3 -3 -34 -27 -70 -54 -127 -96 -249 -235
-315 -361 -12 -22 -34 -46 -49 -54 -27 -12 -30 -11 -59 17 l-31 31 19 36 c11
19 23 35 27 35 5 0 8 6 8 14 0 8 22 41 50 73 27 32 50 62 50 66 0 13 145 149
218 204 26 20 48 40 50 45 2 4 8 8 13 8 11 0 131 80 141 95 4 5 8 7 8 2 0 -4
18 4 40 18 53 33 240 125 240 118 0 -3 6 -1 13 4 12 10 157 62 192 69 11 2 45
9 75 15 30 6 73 12 94 13 23 1 41 7 44 15 4 11 -7 13 -54 8 -33 -4 -70 -9 -84
-11 -14 -3 -41 -8 -60 -11 -19 -4 -43 -11 -52 -16 -9 -5 -24 -9 -33 -9 -9 0
-31 -6 -48 -14 -18 -8 -68 -28 -112 -46 -117 -46 -211 -97 -345 -185 -138 -91
-340 -259 -340 -283 0 -4 -22 -32 -50 -62 -27 -30 -50 -60 -50 -66 0 -6 -7
-18 -17 -25 -9 -8 -22 -29 -30 -47 -11 -27 -16 -30 -27 -20 -8 7 -14 15 -13
18 0 3 -12 32 -28 65 -59 129 -93 335 -73 442 36 191 157 377 328 505 48 36
155 90 205 103 17 5 35 9 40 11 159 47 285 58 425 37z m344 -571 c-61 -20
-118 -43 -126 -49 -8 -7 -17 -11 -20 -8 -3 3 -11 -1 -18 -10 -7 -8 -20 -15
-30 -15 -10 0 -23 -7 -30 -15 -7 -8 -17 -15 -22 -15 -15 0 -160 -103 -212
-151 -26 -24 -83 -87 -125 -139 -42 -52 -83 -103 -91 -113 -26 -31 -77 -50
-124 -45 -48 6 -136 46 -136 62 1 26 260 256 288 256 6 0 12 4 14 9 2 7 76 50
158 92 58 29 197 84 240 94 8 2 34 10 57 18 22 9 56 18 75 21 18 4 67 15 108
25 118 30 115 23 -6 -17z m276 3 c89 -17 127 -43 139 -96 15 -68 -26 -173 -99
-251 -25 -28 -52 -40 -31 -14 27 33 -110 117 -244 151 -128 32 -282 35 -357 6
-16 -6 -28 -9 -28 -7 0 14 177 115 255 146 33 13 65 27 72 32 7 6 22 11 35 13
13 2 57 10 98 18 66 12 107 13 160 2z m-319 -219 c60 -7 193 -52 246 -83 30
-17 45 -35 54 -61 16 -48 15 -201 -1 -232 -7 -13 -14 -38 -15 -55 -3 -58 -98
-183 -197 -260 -16 -14 -82 -48 -129 -69 -111 -48 -326 -63 -469 -31 -41 9
-82 18 -90 20 -14 2 -33 9 -102 36 -26 10 -68 49 -54 49 4 0 4 5 1 10 -4 6
-15 0 -27 -16 -53 -67 -211 -106 -268 -67 -34 24 -59 55 -60 74 0 9 -3 19 -7
23 -13 12 -5 97 11 121 9 14 27 27 41 31 33 8 92 -3 102 -20 25 -41 121 -77
152 -57 12 8 11 15 -4 47 -11 24 -18 63 -19 108 -1 80 -12 72 89 62 22 -3 45
0 52 6 7 6 13 7 13 4 0 -4 20 7 45 25 25 18 45 36 45 40 0 5 11 19 25 33 14
14 25 30 25 35 0 6 42 53 93 105 96 99 116 110 217 122 25 3 46 7 48 8 4 4
129 -1 183 -8z m412 -205 c25 -10 47 -53 41 -81 -2 -8 -7 -28 -10 -45 -11 -48
-98 -126 -123 -111 -7 5 15 111 26 125 2 3 9 -1 15 -7 7 -7 16 -12 20 -12 11
0 6 23 -7 32 -6 4 -2 14 10 23 19 16 19 16 -12 12 -32 -3 -33 -3 -33 35 0 34
3 38 24 38 14 0 36 -4 49 -9z m-1294 -117 c26 -15 27 -18 26 -109 0 -78 3 -96
19 -114 51 -56 -52 -21 -112 38 -25 26 -42 40 -38 34 8 -14 -19 -19 -28 -5 -6
11 33 92 44 92 5 0 12 9 15 21 6 18 34 56 43 58 2 1 16 -6 31 -15z m186 -436
c5 -4 17 -8 27 -8 14 0 18 -8 18 -35 l0 -35 -47 6 c-79 9 -75 3 -64 96 1 8 49
-10 66 -24z m-99 -30 c-2 -41 -6 -52 -22 -58 -20 -8 -83 -68 -85 -82 -1 -4 -3
-12 -4 -18 -1 -5 -3 -16 -4 -24 0 -8 -19 -25 -41 -37 -36 -21 -120 -111 -120
-130 0 -5 -4 -9 -8 -9 -10 0 19 93 49 157 10 24 19 48 19 53 0 15 30 71 46 88
8 7 14 17 14 22 0 5 29 23 65 40 36 17 67 36 70 41 14 22 22 5 21 -43z m848 0
c-4 -24 -8 -54 -10 -66 -3 -32 -6 -34 -40 -22 -16 5 -41 11 -57 13 -15 2 -27
6 -27 10 0 4 0 16 0 27 0 15 16 28 58 49 81 40 85 39 76 -11z m-641 -28 c7
-33 47 -78 90 -100 19 -9 26 -19 22 -29 -7 -18 -21 -93 -30 -156 -13 -93 -14
-140 -3 -152 11 -14 147 -19 149 -5 1 4 2 27 4 52 2 25 5 61 9 80 3 19 8 62
12 95 4 33 8 67 10 75 1 8 3 18 3 21 1 3 7 6 14 6 19 0 127 52 127 62 0 13 33
47 53 54 14 5 17 1 15 -25 -2 -23 -11 -36 -34 -50 -112 -66 -111 -216 2 -274
12 -7 36 -15 51 -18 24 -6 33 -16 46 -54 9 -26 18 -58 21 -72 5 -32 26 -79 46
-104 20 -24 86 -66 104 -66 19 0 54 -95 51 -136 -6 -76 -34 -96 -132 -95 -79
1 -101 4 -183 22 -25 6 -56 13 -70 15 -14 2 -47 9 -74 15 -100 23 -263 32
-361 19 -223 -30 -244 -31 -264 -20 -21 11 -29 58 -13 74 4 4 7 11 7 14 3 29
25 63 66 102 42 40 112 162 108 187 -1 5 2 23 6 41 6 26 12 32 34 32 27 0 111
47 111 63 0 4 11 25 25 45 20 29 25 49 25 99 0 52 -4 66 -27 95 -15 18 -35 39
-45 46 -10 8 -16 23 -14 40 5 34 3 32 20 32 7 0 16 -13 19 -30z m741 -35 c43
-42 77 -99 102 -172 12 -35 19 -63 17 -63 -6 0 -77 53 -84 63 -3 5 -8 7 -10 6
-13 -10 -68 30 -90 65 -24 40 -25 46 -15 104 11 69 5 69 80 -3z m-617 25 c18
-5 89 -8 157 -7 140 2 147 -6 46 -50 -68 -31 -169 -34 -224 -8 -35 17 -76 58
-76 76 0 8 36 4 97 -11z m-176 -51 c101 -51 97 -207 -5 -276 -48 -32 -100 -35
-162 -8 -123 54 -118 233 8 293 50 23 102 21 159 -9z m645 -27 c10 -6 32 -24
48 -40 23 -25 28 -39 28 -81 0 -61 -18 -92 -67 -115 -102 -49 -228 20 -219
121 4 50 32 93 78 120 24 13 103 11 132 -5z m-354 -58 c-5 -28 -10 -29 -36 -9
-13 10 -24 11 -37 5 -25 -14 -28 -13 -26 10 1 17 8 20 52 19 49 -1 51 -3 47
-25z m-34 -50 c4 -27 -26 -40 -46 -20 -20 20 -9 44 20 42 15 -1 24 -8 26 -22z
m-510 -113 c23 -32 63 -61 88 -66 10 -2 20 -4 22 -5 1 -2 8 -3 15 -4 16 -2 11
-58 -8 -95 -8 -16 -16 -39 -19 -52 -11 -62 -50 -104 -126 -135 -40 -17 -105
-17 -144 0 -44 18 -82 90 -72 135 3 14 8 36 11 48 16 68 77 167 149 237 l51
50 7 -45 c4 -24 16 -55 26 -68z m1087 64 c84 -56 149 -162 144 -236 -4 -52
-20 -87 -55 -122 -38 -38 -85 -44 -180 -24 -37 8 -122 126 -107 150 2 4 0 13
-5 20 -6 7 -12 26 -15 44 -3 17 -8 37 -12 42 -4 7 4 11 19 11 36 0 84 31 99
63 6 15 15 27 19 27 5 0 8 9 8 19 0 11 3 26 6 34 6 16 18 12 79 -28z m-637 8
c7 -12 17 -14 41 -10 29 6 31 5 31 -24 0 -29 -1 -30 -34 -24 -28 6 -36 3 -55
-20 -11 -15 -21 -34 -21 -41 0 -22 45 -46 74 -38 21 5 26 3 26 -13 0 -17 -7
-20 -56 -19 l-56 1 6 75 c3 41 8 84 10 95 3 11 5 23 5 28 2 13 20 7 29 -10z
m48 -118 c-9 -24 -51 -16 -51 10 0 11 6 23 15 26 20 9 44 -15 36 -36z m89
-504 c28 -7 57 -14 65 -16 8 -2 36 -8 63 -14 76 -18 117 -23 189 -25 58 -2 70
-5 91 -28 14 -15 23 -29 20 -32 -2 -2 0 -13 6 -24 14 -26 52 -169 57 -212 2
-19 6 -51 10 -70 9 -49 13 -110 8 -110 -3 0 -13 4 -22 9 -49 26 -196 29 -276
6 -159 -46 -275 -145 -332 -283 -18 -42 -24 -51 -25 -32 -6 169 4 366 22 435
6 22 13 47 15 55 1 8 13 47 24 85 12 39 24 79 27 90 4 11 13 30 21 43 8 12 12
25 9 28 -6 6 -42 -44 -50 -71 -3 -11 -17 -51 -31 -88 -14 -37 -26 -78 -26 -91
0 -12 -3 -26 -6 -29 -4 -4 -8 -21 -10 -39 -2 -18 -6 -44 -9 -58 -13 -55 -25
-205 -22 -278 2 -72 0 -80 -28 -119 -16 -23 -37 -44 -45 -47 -8 -3 -34 -17
-57 -31 -114 -68 -309 -77 -365 -17 -46 49 -16 130 66 182 32 19 39 20 78 9
47 -14 55 -15 108 -19 57 -3 80 -1 80 10 0 6 -15 10 -32 9 -40 -3 -148 19
-165 33 -7 6 -13 8 -13 4 0 -3 -23 6 -51 20 -49 26 -109 77 -109 94 0 5 -7 15
-15 24 -43 43 -34 291 14 371 3 6 6 12 7 15 6 30 47 110 56 110 5 0 8 6 8 14
0 19 46 73 62 73 27 1 145 14 188 22 67 12 337 6 395 -8z m447 -539 c53 -14
122 -66 147 -108 16 -26 18 -35 7 -31 -44 17 -262 31 -271 17 -2 -3 -18 -7
-37 -8 -70 -5 -235 -67 -294 -109 -17 -12 -34 -20 -36 -17 -3 2 -13 -7 -22
-20 -9 -14 -25 -30 -36 -36 -20 -11 -20 -10 -6 24 8 20 13 36 11 36 -16 0 86
139 103 140 6 0 12 4 12 9 0 14 99 68 164 91 31 10 56 17 56 14 0 -3 7 -1 15
4 20 11 140 7 187 -6z m123 -156 c40 -8 65 -18 65 -27 0 -5 1 -12 3 -16 1 -4
-54 -8 -123 -10 -126 -3 -162 -6 -190 -16 -8 -3 -22 -5 -30 -5 -78 3 -314 -97
-372 -158 l-38 -38 0 27 c0 15 9 35 20 44 11 10 20 23 20 30 0 7 6 13 13 13 8
0 22 9 32 21 20 21 149 86 225 113 25 8 68 18 95 22 28 3 52 8 54 9 4 5 198
-4 226 -9z m79 -91 c6 -17 -31 -56 -95 -97 -107 -68 -196 -103 -290 -112 -20
-2 -45 -8 -55 -13 -10 -5 -26 -9 -34 -8 -8 1 -20 -2 -26 -7 -6 -4 -28 -7 -50
-5 -21 1 -44 -1 -49 -5 -15 -9 -116 11 -132 27 -12 12 -11 18 3 40 22 34 144
114 184 120 3 0 28 8 55 18 28 9 64 19 80 22 17 2 41 7 55 11 101 23 346 30
354 9z m-796 -114 c9 -25 7 -32 -14 -50 -105 -92 -208 -134 -354 -144 -8 -1
-39 2 -69 6 -60 9 -103 36 -113 73 -8 29 -10 29 43 4 118 -53 355 4 457 110
34 36 38 36 50 1z"/>
<path d="M1706 2774 c-3 -9 -6 -16 -6 -17 0 -1 14 -2 30 -2 34 0 39 10 11 25
-26 13 -28 13 -35 -6z"/>
<path d="M1756 2575 c-22 -23 2 -79 29 -69 18 7 24 35 14 62 -10 26 -22 28
-43 7z"/>
<path d="M1490 2473 c0 -16 -6 -35 -12 -42 -11 -11 -8 -12 16 -7 25 6 28 5 23
-13 -3 -13 -1 -18 8 -14 23 8 25 33 5 50 -10 9 -17 20 -15 24 3 4 -2 12 -10
19 -13 11 -15 8 -15 -17z"/>
<path d="M1127 2475 c-23 -22 -21 -52 4 -65 15 -9 24 -8 35 1 19 15 18 32 -4
59 -17 21 -19 21 -35 5z"/>
<path d="M1745 2465 c-20 -16 -25 -24 -14 -25 8 0 20 5 27 12 9 9 12 9 12 0 0
-10 5 -10 21 -1 17 9 23 8 30 -2 6 -11 11 -11 21 -1 9 9 9 12 -5 12 -9 0 -17
5 -17 11 0 6 -9 8 -21 4 -15 -5 -19 -4 -15 4 12 19 -8 12 -39 -14z"/>
<path d="M1591 2381 c-7 -5 -11 -14 -7 -20 8 -13 -27 -94 -60 -137 -33 -45
-99 -77 -157 -78 -26 0 -53 6 -60 13 -18 18 -13 112 7 127 24 17 20 37 -6 28
-33 -9 -51 -26 -39 -34 7 -4 7 -16 -1 -36 -14 -38 -5 -77 25 -104 17 -17 33
-21 77 -19 95 4 162 50 210 144 19 37 30 71 26 80 -4 12 0 19 14 22 11 3 17 9
14 14 -7 11 -25 11 -43 0z"/>
<path d="M1075 2340 c-11 -5 -32 -9 -46 -9 -27 -1 -97 -56 -86 -68 4 -3 12 -1
19 4 7 6 26 13 43 17 16 4 33 13 37 19 6 9 8 9 8 0 0 -20 25 -15 45 7 11 12
13 20 6 20 -7 0 -9 5 -6 10 7 11 7 11 -20 0z"/>
<path d="M613 2247 c-50 -19 -47 -24 8 -19 l52 4 -6 -29 c-3 -16 -2 -35 4 -43
7 -12 9 -11 9 5 1 31 23 55 41 44 23 -14 33 -10 18 7 -13 16 -33 26 -74 37
-11 3 -34 0 -52 -6z"/>
<path d="M1039 1113 c-4 -28 6 -70 22 -97 11 -17 22 -38 25 -46 5 -14 68 -57
70 -48 0 1 8 -3 17 -10 10 -9 17 -10 22 -3 3 6 -7 16 -22 23 -15 7 -39 25 -54
40 -27 29 -72 114 -72 135 0 14 -6 18 -8 6z"/>
</g>
</svg>
