<?xml version="1.0" standalone="no"?>
<!DOCTYPE svg PUBLIC "-//W3C//DTD SVG 20010904//EN"
 "http://www.w3.org/TR/2001/REC-SVG-20010904/DTD/svg10.dtd">
<svg version="1.0" xmlns="http://www.w3.org/2000/svg"
 width="92.800000pt" height="207.200000pt" viewBox="0 0 92.800000 207.200000"
 preserveAspectRatio="xMidYMid meet">
<metadata>
Created by potrace 1.13, written by Peter Selinger 2001-2015
</metadata>
<g transform="translate(0.000000,207.200000) scale(0.080000,-0.080000)"
fill="#000000" stroke="none">
<path d="M492 2495 c-146 -74 -177 -260 -65 -385 54 -61 119 -85 203 -77 68 6
107 24 154 73 106 109 82 298 -48 379 -40 24 -62 30 -120 33 -61 3 -78 0 -124
-23z"/>
<path d="M338 1949 c-65 -10 -119 -41 -172 -99 -108 -121 -115 -319 -21 -588
48 -139 101 -249 124 -262 21 -11 21 -17 21 -431 0 -455 1 -465 55 -507 60
-47 155 -31 195 33 19 31 20 48 20 484 l0 451 25 0 24 0 3 -447 c3 -492 3
-488 65 -528 39 -26 115 -25 151 1 64 47 62 28 62 688 l0 599 -37 -7 c-21 -3
-46 -6 -56 -6 -16 0 -17 -6 -11 -45 3 -25 5 -45 3 -46 -188 -32 -285 -45 -290
-40 -8 9 -81 482 -75 488 7 8 280 51 286 46 3 -2 12 -46 20 -96 l15 -92 40 3
c22 2 55 10 73 17 32 14 32 14 32 87 l0 73 20 -30 c43 -65 19 -127 -60 -154
-28 -10 -145 -21 -228 -21 -7 0 -24 -11 -37 -25 -34 -33 -34 -87 0 -120 23
-24 31 -25 132 -25 59 0 131 6 158 14 159 42 245 148 232 286 -9 107 -93 227
-191 274 -49 25 -58 25 -292 28 -133 2 -262 0 -286 -3z m-50 -467 l-3 -77 -13
58 c-18 75 -18 175 -1 223 l14 39 3 -83 c2 -46 2 -118 0 -160z"/>
</g>
</svg>
