<?xml version="1.0" standalone="no"?>
<!DOCTYPE svg PUBLIC "-//W3C//DTD SVG 20010904//EN"
 "http://www.w3.org/TR/2001/REC-SVG-20010904/DTD/svg10.dtd">
<svg version="1.0" xmlns="http://www.w3.org/2000/svg"
 width="441.600000pt" height="441.600000pt" viewBox="0 0 441.600000 441.600000"
 preserveAspectRatio="xMidYMid meet">
<metadata>
Created by potrace 1.13, written by Peter Selinger 2001-2015
</metadata>
<g transform="translate(0.000000,441.600000) scale(0.080000,-0.080000)"
fill="#000000" stroke="none">
<path d="M2649 5043 c-172 -88 -181 -331 -16 -427 l43 -26 2 -84 c1 -96 7 -90
-93 -101 -173 -18 -415 -76 -570 -137 -185 -72 -303 -144 -455 -278 -123 -108
-188 -152 -290 -196 -190 -83 -348 -61 -460 64 -48 54 -50 58 -44 102 5 40 3
50 -19 75 -22 26 -31 29 -87 30 -55 0 -64 -3 -86 -28 -33 -39 -30 -67 18 -159
71 -137 193 -248 305 -278 26 -7 52 -16 56 -20 5 -4 -46 -135 -113 -291 -67
-156 -239 -555 -381 -887 l-259 -603 0 -85 c0 -242 128 -425 350 -500 51 -18
92 -19 525 -19 433 0 474 1 525 19 78 26 160 78 211 133 94 101 128 189 136
343 l4 105 -385 895 -385 895 47 13 c26 8 135 52 242 97 325 139 615 228 892
274 136 23 299 40 311 34 4 -2 7 -460 7 -1018 l-1 -1013 -60 -11 c-78 -13
-123 -42 -157 -99 -27 -47 -27 -48 -30 -264 l-4 -217 -52 -11 c-145 -30 -227
-121 -249 -276 l-11 -74 -285 0 c-277 0 -288 -1 -343 -24 -74 -30 -128 -74
-171 -139 -49 -74 -67 -143 -67 -259 0 -92 2 -101 25 -123 l24 -25 1461 0
1461 0 24 25 c23 22 25 31 25 123 0 116 -18 185 -67 259 -43 65 -97 109 -171
139 -55 23 -66 24 -343 24 l-285 0 -11 74 c-22 155 -104 246 -249 276 l-52 11
-4 217 c-3 216 -3 217 -30 264 -34 57 -79 86 -157 99 l-61 11 3 1017 2 1016
55 -3 c327 -18 764 -136 1175 -317 72 -32 160 -67 197 -79 l66 -22 -384 -895
-385 -894 4 -105 c8 -154 42 -242 136 -343 51 -55 133 -107 211 -133 51 -18
92 -19 525 -19 433 0 474 1 525 19 171 58 291 185 334 352 9 34 16 100 16 148
l0 85 -304 708 c-167 390 -338 788 -381 886 -42 99 -75 180 -73 182 2 2 33 15
71 29 128 48 224 137 295 274 48 92 51 120 18 159 -22 25 -31 28 -86 28 -56
-1 -65 -4 -87 -30 -22 -25 -24 -35 -19 -75 6 -44 4 -48 -44 -102 -82 -93 -184
-128 -311 -109 -136 22 -270 92 -409 216 -136 122 -207 171 -345 239 -183 90
-363 146 -596 186 -63 11 -130 20 -149 20 -57 0 -62 8 -59 99 l3 82 43 25
c212 124 119 454 -127 454 -42 0 -71 -7 -111 -27z m161 -170 c22 -19 27 -67 8
-79 -7 -5 -8 -3 -3 6 5 8 4 11 -3 6 -6 -4 -9 -13 -6 -20 3 -8 0 -17 -6 -21
-16 -10 -60 -14 -55 -5 3 5 -2 11 -11 14 -10 4 -13 2 -9 -7 4 -6 -3 -1 -14 13
-41 50 -16 108 46 109 18 1 42 -7 53 -16z m-1410 -2228 c177 -413 324 -756
327 -762 4 -10 -130 -13 -651 -13 -361 0 -656 3 -656 6 0 5 604 1415 643 1502
6 12 11 21 13 19 1 -1 147 -340 324 -752z m3384 -27 c174 -405 316 -739 316
-742 0 -3 -295 -6 -656 -6 -389 0 -654 4 -652 9 2 5 149 350 327 766 291 678
326 754 337 733 6 -13 154 -354 328 -760z m-3276 -1005 c-10 -114 -23 -161
-48 -183 -13 -11 -17 -20 -10 -20 10 0 10 -3 1 -14 -9 -11 -9 -15 1 -19 7 -3
-158 -6 -367 -6 l-381 -1 -17 29 c-9 15 -14 31 -10 35 3 3 1 6 -5 6 -6 0 -13
15 -17 33 -3 17 -10 41 -15 52 -5 11 -13 53 -18 93 l-8 72 450 0 451 0 -7 -77z
m3368 -10 c-3 -49 -7 -105 -8 -125 -2 -31 -6 -38 -23 -38 -16 0 -17 -2 -5 -10
12 -8 10 -10 -10 -11 -14 0 -20 -3 -13 -5 8 -4 6 -11 -8 -25 -18 -18 -36 -19
-379 -19 -323 0 -360 2 -360 16 0 13 -10 15 -60 11 -33 -2 -63 -1 -66 4 -3 5
3 9 13 10 13 1 11 3 -7 10 -18 6 -11 7 24 3 27 -3 55 -8 63 -11 13 -5 13 -3 2
18 -7 13 -14 29 -16 34 -19 74 -23 100 -23 158 l0 67 441 0 440 0 -5 -87z
m-4456 13 c0 -12 5 -27 11 -33 7 -7 3 -9 -15 -6 -14 3 -23 9 -20 15 3 5 0 15
-6 23 -10 12 -10 15 0 15 7 0 10 7 6 16 -5 14 -4 15 9 4 8 -7 15 -22 15 -34z
m1290 -40 c0 -14 -4 -28 -10 -31 -6 -4 -10 7 -10 24 0 17 5 31 10 31 6 0 10
-11 10 -24z m3210 -16 c0 -22 -4 -40 -10 -40 -5 0 -10 18 -10 40 0 22 5 40 10
40 6 0 10 -18 10 -40z m-4446 -28 c2 -23 -1 -39 -5 -36 -5 3 -9 24 -9 46 0 52
9 45 14 -10z m166 -58 c0 -9 -7 -14 -17 -12 -25 5 -28 28 -4 28 12 0 21 -6 21
-16z m952 -53 c4 -3 -7 -7 -25 -7 -18 -1 -45 -5 -62 -8 -24 -5 -23 -4 4 5 27
8 31 13 20 20 -9 6 -2 7 21 3 19 -4 38 -9 42 -13z"/>
</g>
</svg>
